<svg width="31" height="31" viewBox="0 0 31 31" fill="none" xmlns="http://www.w3.org/2000/svg">
<path d="M26.0997 15.6963C26.6923 15.3021 27.1774 14.917 27.5485 14.5467C30.4287 11.6665 30.4287 6.98054 27.5485 4.10116C26.1535 2.7061 24.2989 1.9375 22.3253 1.9375C20.3517 1.9375 18.4972 2.7061 17.1021 4.10116C16.6029 4.60034 16.0798 5.30448 15.5426 6.19954L15.5021 5.62184L15.4616 6.19954C14.9244 5.30448 14.4012 4.60034 13.9021 4.10116C12.507 2.7061 10.6516 1.9375 8.67886 1.9375C6.70611 1.9375 4.85071 2.7061 3.45565 4.10116C2.0606 5.49622 1.29199 7.35161 1.29199 9.32436C1.29199 11.2971 2.0606 13.1525 3.45565 14.5476C3.82591 14.9178 4.31186 15.303 4.90443 15.6972C4.31186 16.0914 3.82673 16.4765 3.45565 16.8468C2.0606 18.2418 1.29199 20.0964 1.29199 22.07C1.29199 24.0436 2.0606 25.8981 3.45565 27.2932C4.85071 28.6882 6.70528 29.4568 8.67886 29.4568C10.6524 29.4568 12.507 28.6882 13.9021 27.2932C14.4012 26.794 14.9244 26.0899 15.4616 25.1948L15.5021 25.7725L15.5426 25.1948C16.0798 26.0899 16.6029 26.794 17.1021 27.2932C18.4972 28.6882 20.3517 29.4568 22.3253 29.4568C24.2989 29.4568 26.1535 28.6882 27.5485 27.2932C30.4287 24.413 30.4287 19.727 27.5485 16.8476C27.1783 16.4773 26.6923 16.0922 26.0997 15.698V15.6963ZM15.9385 7.50781C16.5889 6.30697 17.2343 5.37142 17.8038 4.802C19.0112 3.59454 20.617 2.92925 22.3253 2.92925C24.0336 2.92925 25.6394 3.59454 26.8468 4.802C29.3403 7.29541 29.3403 11.3525 26.8468 13.8451C26.4014 14.2905 25.7518 14.7699 24.9146 15.2707L24.3476 15.6096L16.9624 15.0905L22.6253 8.57146L16.1062 14.2343L15.6682 8.00286L15.9368 7.50699L15.9385 7.50781ZM4.15732 13.8451C2.94986 12.6376 2.28457 11.0318 2.28457 9.32354C2.28457 7.61525 2.94986 6.00945 4.15732 4.802C5.36477 3.59454 6.97058 2.92925 8.67886 2.92925C10.3871 2.92925 11.9929 3.59454 13.2004 4.802C13.7707 5.37225 14.4153 6.3078 15.0657 7.50781L15.3343 8.00369L14.8963 14.2352L8.3772 8.57229L14.0401 15.0914L6.65487 15.6104L6.08792 15.2715C5.25072 14.7707 4.60112 14.2914 4.15566 13.8459L4.15732 13.8451ZM15.0665 23.8849C14.4161 25.0857 13.7707 26.0213 13.2012 26.5907C11.9938 27.799 10.3871 28.4634 8.67968 28.4634C6.97223 28.4634 5.3656 27.7981 4.15814 26.5907C2.95069 25.3832 2.28539 23.7774 2.28539 22.0692C2.28539 20.3609 2.95069 18.7551 4.15814 17.5476C4.6036 17.1021 5.2532 16.6228 6.0904 16.122L6.65735 15.7831L14.0417 16.3021L8.37886 22.8212L14.8979 17.1583L15.336 23.3898L15.0674 23.8857L15.0665 23.8849ZM26.8468 26.5907C25.6394 27.7981 24.0336 28.4634 22.3253 28.4634C20.617 28.4634 19.0112 27.7981 17.8038 26.5907C17.2343 26.0213 16.5889 25.0857 15.9385 23.8849L15.6699 23.389L16.1079 17.1575L22.627 22.8204L16.9641 16.3013L24.3485 15.7823L24.9154 16.1211C25.7526 16.622 26.4022 17.1013 26.8477 17.5468C29.3411 20.0402 29.3411 24.0973 26.8477 26.5899L26.8468 26.5907Z" fill="#A4BEA7"/>
</svg>
