<svg width="32" height="32" viewBox="0 0 32 32" fill="none" xmlns="http://www.w3.org/2000/svg">
<path d="M26.2853 15.8824C26.8778 15.4882 27.363 15.103 27.7341 14.7328C30.6143 11.8526 30.6143 7.16657 27.7341 4.2872C26.339 2.89214 24.4844 2.12354 22.5109 2.12354C20.5373 2.12354 18.6827 2.89214 17.2877 4.2872C16.7885 4.78638 16.2653 5.49052 15.7281 6.38557L15.6876 5.80788L15.6471 6.38557C15.1099 5.49052 14.5868 4.78638 14.0876 4.2872C12.6926 2.89214 10.8372 2.12354 8.86441 2.12354C6.89166 2.12354 5.03626 2.89214 3.6412 4.2872C2.24614 5.68226 1.47754 7.53765 1.47754 9.5104C1.47754 11.4831 2.24614 13.3385 3.6412 14.7336C4.01145 15.1039 4.49741 15.489 5.08998 15.8832C4.49741 16.2774 4.01228 16.6626 3.6412 17.0328C2.24614 18.4279 1.47754 20.2824 1.47754 22.256C1.47754 24.2296 2.24614 26.0842 3.6412 27.4792C5.03626 28.8743 6.89083 29.6429 8.86441 29.6429C10.838 29.6429 12.6926 28.8743 14.0876 27.4792C14.5868 26.98 15.1099 26.2759 15.6471 25.3808L15.6876 25.9585L15.7281 25.3808C16.2653 26.2759 16.7885 26.98 17.2877 27.4792C18.6827 28.8743 20.5373 29.6429 22.5109 29.6429C24.4844 29.6429 26.339 28.8743 27.7341 27.4792C30.6143 24.599 30.6143 19.913 27.7341 17.0336C27.3638 16.6634 26.8778 16.2782 26.2853 15.884V15.8824ZM16.124 7.69385C16.7744 6.49301 17.4199 5.55746 17.9893 4.98803C19.1968 3.78058 20.8026 3.11528 22.5109 3.11528C24.2191 3.11528 25.8249 3.78058 27.0324 4.98803C29.5258 7.48145 29.5258 11.5385 27.0324 14.0311C26.5869 14.4766 25.9373 14.9559 25.1001 15.4568L24.5332 15.7956L17.148 15.2766L22.8109 8.7575L16.2918 14.4204L15.8537 8.18889L16.1223 7.69302L16.124 7.69385ZM4.34286 14.0311C3.13541 12.8237 2.47011 11.2179 2.47011 9.50957C2.47011 7.80128 3.13541 6.19548 4.34286 4.98803C5.55032 3.78058 7.15612 3.11528 8.86441 3.11528C10.5727 3.11528 12.1785 3.78058 13.3859 4.98803C13.9562 5.55829 14.6008 6.49383 15.2513 7.69385L15.5199 8.18972L15.0818 14.4212L8.56275 8.75832L14.2256 15.2774L6.84041 15.7964L6.27347 15.4576C5.43626 14.9568 4.78667 14.4774 4.34121 14.0319L4.34286 14.0311ZM15.2521 24.0709C14.6017 25.2717 13.9562 26.2073 13.3868 26.7767C12.1793 27.985 10.5727 28.6495 8.86523 28.6495C7.15777 28.6495 5.55114 27.9842 4.34369 26.7767C3.13624 25.5693 2.47094 23.9635 2.47094 22.2552C2.47094 20.5469 3.13624 18.9411 4.34369 17.7336C4.78915 17.2882 5.43875 16.8088 6.27595 16.308L6.84289 15.9692L14.2273 16.4882L8.5644 23.0073L15.0835 17.3444L15.5215 23.5759L15.2529 24.0717L15.2521 24.0709ZM27.0324 26.7767C25.8249 27.9842 24.2191 28.6495 22.5109 28.6495C20.8026 28.6495 19.1968 27.9842 17.9893 26.7767C17.4199 26.2073 16.7744 25.2717 16.124 24.0709L15.8554 23.575L16.2934 17.3436L22.8125 23.0064L17.1496 16.4873L24.534 15.9683L25.101 16.3072C25.9382 16.808 26.5878 17.2874 27.0332 17.7328C29.5266 20.2262 29.5266 24.2833 27.0332 26.7759L27.0324 26.7767Z" fill="#F0D1E6"/>
</svg>
