<svg width="31" height="31" viewBox="0 0 31 31" fill="none" xmlns="http://www.w3.org/2000/svg">
<path d="M26.0626 15.7783C26.6484 15.3885 27.128 15.0078 27.4948 14.6418C30.342 11.7946 30.342 7.16227 27.4948 4.31588C26.1157 2.9368 24.2824 2.177 22.3315 2.177C20.3805 2.177 18.5472 2.9368 17.1681 4.31588C16.6746 4.80934 16.1575 5.50542 15.6264 6.39022L15.5864 5.81914L15.5464 6.39022C15.0153 5.50542 14.4982 4.80934 14.0047 4.31588C12.6256 2.9368 10.7915 2.177 8.84132 2.177C6.89117 2.177 5.05702 2.9368 3.67794 4.31588C2.29886 5.69496 1.53906 7.5291 1.53906 9.47925C1.53906 11.4294 2.29886 13.2636 3.67794 14.6426C4.04395 15.0086 4.52434 15.3894 5.11012 15.7791C4.52434 16.1688 4.04477 16.5495 3.67794 16.9155C2.29886 18.2946 1.53906 20.1279 1.53906 22.0789C1.53906 24.0298 2.29886 25.8632 3.67794 27.2422C5.05702 28.6213 6.89035 29.3811 8.84132 29.3811C10.7923 29.3811 12.6256 28.6213 14.0047 27.2422C14.4982 26.7488 15.0153 26.0527 15.5464 25.1679L15.5864 25.739L15.6264 25.1679C16.1575 26.0527 16.6746 26.7488 17.1681 27.2422C18.5472 28.6213 20.3805 29.3811 22.3315 29.3811C24.2824 29.3811 26.1157 28.6213 27.4948 27.2422C30.342 24.395 30.342 19.7627 27.4948 16.9163C27.1288 16.5503 26.6484 16.1696 26.0626 15.7799V15.7783ZM16.0178 7.68351C16.6607 6.49642 17.2988 5.57159 17.8617 5.00869C19.0553 3.81506 20.6427 3.15739 22.3315 3.15739C24.0202 3.15739 25.6076 3.81506 26.8012 5.00869C29.2661 7.47354 29.2661 11.4842 26.8012 13.9482C26.3608 14.3885 25.7187 14.8624 24.8911 15.3575L24.3306 15.6925L17.03 15.1794L22.628 8.73498L16.1836 14.333L15.7506 8.17289L16.0161 7.68269L16.0178 7.68351ZM4.37157 13.9482C3.17795 12.7546 2.52027 11.1672 2.52027 9.47843C2.52027 7.78972 3.17795 6.20231 4.37157 5.00869C5.56519 3.81506 7.1526 3.15739 8.84132 3.15739C10.53 3.15739 12.1174 3.81506 13.3111 5.00869C13.8748 5.57241 14.512 6.49724 15.155 7.68351L15.4205 8.1737L14.9875 14.3338L8.54312 8.73579L14.1411 15.1802L6.84051 15.6933L6.28005 15.3583C5.45244 14.8632 4.81029 14.3894 4.36993 13.949L4.37157 13.9482ZM15.1558 23.873C14.5129 25.0601 13.8748 25.9849 13.3119 26.5478C12.1183 27.7422 10.53 28.3991 8.84213 28.3991C7.15423 28.3991 5.566 27.7414 4.37238 26.5478C3.17876 25.3542 2.52109 23.7668 2.52109 22.0781C2.52109 20.3893 3.17876 18.8019 4.37238 17.6083C4.81274 17.1679 5.4549 16.6941 6.28251 16.199L6.84296 15.864L14.1428 16.3771L8.54475 22.8215L14.9892 17.2235L15.4222 23.3836L15.1566 23.8738L15.1558 23.873ZM26.8012 26.5478C25.6076 27.7414 24.0202 28.3991 22.3315 28.3991C20.6427 28.3991 19.0553 27.7414 17.8617 26.5478C17.2988 25.9849 16.6607 25.0601 16.0178 23.873L15.7522 23.3828L16.1852 17.2227L22.6297 22.8207L17.0316 16.3763L24.3314 15.8632L24.8919 16.1982C25.7195 16.6933 26.3617 17.1671 26.802 17.6075C29.2669 20.0723 29.2669 24.0829 26.802 26.547L26.8012 26.5478Z" fill="white"/>
</svg>
